<svg xmlns="http://www.w3.org/2000/svg" viewBox="0 0 200 200" width="200" height="200">
  <defs>
    <linearGradient id="grad" x1="0%" y1="0%" x2="100%" y2="100%">
      <stop offset="0%" style="stop-color:#4a90e2"/>
      <stop offset="100%" style="stop-color:#7b2cbf"/>
    </linearGradient>
    <linearGradient id="bgGrad" x1="0%" y1="0%" x2="100%" y2="100%">
      <stop offset="0%" style="stop-color:#1a1a2e"/>
      <stop offset="100%" style="stop-color:#0a0a0f"/>
    </linearGradient>
  </defs>
  <rect width="200" height="200" rx="20" fill="url(#bgGrad)" stroke="url(#grad)" stroke-width="1.5"/>
  <rect x="45" y="55" width="110" height="90" rx="8" fill="none" stroke="url(#grad)" stroke-width="1.5"/>
  <rect x="55" y="65" width="30" height="15" rx="3" fill="#4a90e2" opacity="0.3"/>
  <rect x="55" y="85" width="45" height="15" rx="3" fill="#4a90e2" opacity="0.5"/>
  <rect x="55" y="105" width="25" height="15" rx="3" fill="#7b2cbf" opacity="0.4"/>
  <rect x="100" y="65" width="40" height="55" rx="3" fill="none" stroke="#4a90e2" stroke-width="1" opacity="0.5"/>
  <rect x="105" y="100" width="12" height="20" rx="2" fill="#7b2cbf" opacity="0.6"/>
  <rect x="121" y="85" width="12" height="35" rx="2" fill="#4a90e2" opacity="0.5"/>
  <rect x="137" y="70" width="12" height="50" rx="2" fill="#7b2cbf" opacity="0.4"/>
  <circle cx="70" cy="140" r="8" fill="#4a90e2" opacity="0.2"/>
  <circle cx="70" cy="140" r="4" fill="#4a90e2"/>
  <circle cx="130" cy="140" r="8" fill="#7b2cbf" opacity="0.2"/>
  <circle cx="130" cy="140" r="4" fill="#7b2cbf"/>
</svg>